HIERARCHY
ROOT Hips
{
  OFFSET 0 90 0
  CHANNELS 6 Xposition Yposition Zposition Zrotation Xrotation Yrotation
  JOINT Spine
  {
    OFFSET 0 10 0
    CHANNELS 3 Zrotation Xrotation Yrotation
    JOINT Neck
    {
      OFFSET 0 30 0
      CHANNELS 3 Zrotation Xrotation Yrotation
      JOINT Head
      {
        OFFSET 0 8 0
        CHANNELS 3 Zrotation Xrotation Yrotation
        End Site
        {
          OFFSET 0 10 0
        }
      }
      JOINT LeftArm
      {
        OFFSET 15 0 0
        CHANNELS 3 Zrotation Xrotation Yrotation
        JOINT LeftForeArm
        {
          OFFSET 25 0 0
          CHANNELS 3 Zrotation Xrotation Yrotation
          JOINT LeftHand
          {
            OFFSET 25 0 0
            CHANNELS 3 Zrotation Xrotation Yrotation
            End Site
            {
              OFFSET 10 0 0
            }
          }
        }
      }
      JOINT RightArm
      {
        OFFSET -15 0 0
        CHANNELS 3 Zrotation Xrotation Yrotation
        JOINT RightForeArm
        {
          OFFSET -25 0 0
          CHANNELS 3 Zrotation Xrotation Yrotation
          JOINT RightHand
          {
            OFFSET -25 0 0
            CHANNELS 3 Zrotation Xrotation Yrotation
            End Site
            {
              OFFSET -15 0 0
            }
          }
        }
      }
    }
  }
  JOINT LeftUpLeg
  {
    OFFSET 10 -10 0
    CHANNELS 3 Zrotation Xrotation Yrotation
    JOINT LeftLeg
    {
      OFFSET 0 -35 0
      CHANNELS 3 Zrotation Xrotation Yrotation
      JOINT LeftToe
      {
        OFFSET 0 -40 0
        CHANNELS 3 Zrotation Xrotation Yrotation
        End Site
        {
          OFFSET 0 0 15
        }
      }
    }
  }
  JOINT RightUpLeg
  {
    OFFSET -10 -10 0
    CHANNELS 3 Zrotation Xrotation Yrotation
    JOINT RightLeg
    {
      OFFSET 0 -35 0
      CHANNELS 3 Zrotation Xrotation Yrotation
      JOINT RightToe
      {
        OFFSET 0 -40 0
        CHANNELS 3 Zrotation Xrotation Yrotation
        End Site
        {
          OFFSET 0 0 15
        }
      }
    }
  }
}
MOTION
Frames: 25
Frame Time:	0.0333333
49.3517 88.447 -37.9662 -0.752859 5.65674 1.60941 1.49847 5.94129 -8.68158 -2.86401 -13.3773 0.065217 4.74984 -9.67456 5.72434 -67.1019 52.1485 -1.29269 32.9031 -39.9679 -95.6616 -0.0536352 -27.4923 0.00621913 115.703 31.2418 -62.8146 -28.7908 -18.0663 62.4339 0.387983 -9.07058 -0.676147 -4.25997 7.81352 -5.57967 -0.897538 16.706 -2.86291 1.94358 -5.53735 -0.789044 7.21419 -49.7008 8.77958 150.609 86.7016 -150.356 -0.532917 -9.64565 -11.6133 
49.3601 91.0991 -28.1306 -0.643332 5.79356 1.79541 1.82904 4.03089 -10.282 -2.54281 -13.4707 0.358583 4.2635 -7.78239 7.45498 -69.4549 55.2384 2.09447 32.9071 -40.7444 -97.0481 -0.0268949 -26.9935 0.0326357 116.421 27.3445 -65.7518 -28.8267 -18.3804 63.1418 0.42176 -10.7143 -0.637195 -3.0928 18.1097 -4.88759 -1.02696 5.97826 -2.68904 -0.631269 11.9281 -0.796896 8.42885 -48.4133 11.2347 5.92662 76.286 -5.60373 -0.767191 -9.77191 -12.0752 
49.4249 93.7031 -17.9878 -0.737202 5.88809 2.47783 2.32795 1.85787 -11.2805 -3.19608 -13.7214 0.0143466 4.47582 -5.18252 7.76917 -75.9471 58.7118 10.1837 33.2473 -40.7513 -96.9665 -0.0376322 -26.6321 0.0653492 117.409 22.8818 -67.6736 -29.1633 -18.9804 64.4583 0.421961 -11.425 -0.641739 -1.80854 22.6594 -3.7028 -0.843029 4.07988 -2.25442 -2.27373 23.3819 -0.28502 6.59131 -42.6137 9.66753 1.97777 54.8453 -1.20367 -0.928822 -8.84656 -13.6889 
49.6056 94.8861 -7.91788 1.48086 6.36788 3.19706 0.456264 -0.28488 -11.4408 -3.44869 -13.9746 -0.0592124 3.40255 -2.56155 7.77956 -85.2405 61.9195 20.3594 33.6707 -40.5984 -96.5798 -0.053019 -29.5438 0.0732324 117.175 18.5723 -67.8604 -29.9343 -20.0184 66.4244 0.403151 -11.8715 -0.695826 -4.20513 21.8168 -2.15381 -0.0935134 12.9694 -2.24299 -3.52665 17.0911 3.97385 1.71866 -35.8442 7.33357 1.44876 32.6371 0.0464401 -0.510065 -6.05966 -12.8598 
49.8464 95.1781 1.80449 2.77975 5.84473 3.1877 0.0477684 -0.548318 -11.3372 -3.52771 -13.9248 0.133042 1.18318 -2.36149 7.78111 -96.9527 62.6879 32.5973 34.0904 -40.1865 -95.8327 -0.0467973 -29.3432 0.109691 116.849 17.492 -66.268 -30.8631 -21.174 68.2464 0.362146 -13.2329 -0.75078 -5.50697 18.8891 1.08315 0.950429 26.3504 -2.53055 -3.70143 9.07292 8.13052 -1.08809 -26.3502 6.50734 1.32186 11.8714 0.874597 -0.00848327 -1.18302 -11.7214 
49.8799 94.3791 11.0295 3.34226 4.55903 3.14069 -0.0609049 0.662112 -10.2431 -3.74347 -14.2351 0.142475 0.410544 -2.70879 7.12938 -110.08 61.3684 46.3195 34.62 -39.4883 -94.4921 -0.0814618 -29.7977 0.149449 117.33 17.8282 -63.3239 -31.7772 -22.3286 69.7442 0.293895 -12.6865 -0.839607 -4.84413 14.1745 3.90833 2.33795 42.3567 -3.26075 -2.50298 1.63627 10.4442 -1.71821 -20.1002 5.79891 1.45383 4.1962 1.22712 -0.188549 -0.771288 -13.285 
49.9022 92.4049 19.8872 3.48241 3.36387 2.40253 0.135837 2.1185 -8.70856 -3.50537 -14.4771 0.431157 0.0103511 -2.77515 6.734 -119.081 57.7118 56.0428 35.2306 -37.9293 -91.6966 -0.106506 -31.2216 0.194919 116.679 21.1063 -58.3546 -32.4871 -23.3711 70.9132 0.272714 -11.4236 -0.891977 -3.17983 6.96814 6.22487 4.3237 60.801 -4.74402 -0.730089 -4.8448 11.9122 -1.33752 -15.6138 6.44778 1.37241 4.20358 1.40607 -0.0728583 -0.788803 -14.5831 
49.9393 89.9416 28.517 2.15409 2.03662 0.460619 2.01737 4.34678 -5.73746 -3.87294 -14.448 0.969656 0.419968 -3.52332 5.79673 -121.611 54.083 61.2144 35.6594 -35.5187 -87.7911 -0.164355 -30.3196 0.167804 113.38 27.9859 -49.586 -33.0755 -24.3201 71.7425 0.22234 -10.6364 -0.941906 1.00301 -1.58073 8.54148 10.0103 79.2794 -10.1636 0.786909 -9.30036 11.2266 1.94198 -17.0051 5.75487 1.02789 17.3644 1.44408 0.511452 -0.615265 -8.62663 
50.1621 87.5761 36.3597 -2.64214 0.799336 -4.29735 7.92956 8.49137 -2.16302 -3.43621 -13.9275 3.20222 -0.555174 -8.44663 6.69437 -121.053 50.9626 61.4755 35.5398 -31.8123 -82.1518 -0.208527 -30.6638 0.18914 102.718 38.5909 -34.1017 -33.7702 -25.7389 72.9248 0.181106 -10.0187 -0.94834 9.79759 -11.239 11.9827 172.071 83.1733 -172.235 2.09918 -14.4639 7.43596 9.9155 -16.4392 10.6046 0.372938 29.6427 1.7465 -0.286379 -6.83108 -8.70021 
50.0615 86.8695 44.6231 -2.17528 0.623952 -8.91859 6.80672 10.0009 1.1961 -3.08335 -12.9842 4.76256 -0.359574 -10.4202 7.49189 -118.158 44.9822 61.6537 34.5926 -28.1349 -77.2078 -0.243319 -29.1679 0.220156 86.7045 46.6197 -13.8269 -34.3436 -27.1598 73.9922 0.141612 -6.74378 -0.935458 11.8044 -21.2732 14.8332 179.026 74.0743 -179.236 3.78547 -19.1275 9.44014 9.75525 -11.528 12.6801 0.0121445 31.9609 2.02285 -1.08235 -11.6865 -7.10208 
50.2585 87.4017 53.1885 -1.97787 1.15265 -10.2722 6.82674 9.65373 2.75444 -3.16657 -13.1099 4.92934 -0.318598 -9.57689 6.63576 -117.358 39.3371 64.3257 33.697 -26.178 -74.8055 -0.349739 -30.9656 0.100376 72.779 49.3225 1.85586 -34.8189 -30.3034 77.6852 0.162974 -3.287 -0.914588 11.9144 -32.7792 14.2499 -179.22 71.5752 179.084 5.67505 -21.8025 12.3813 8.02284 -3.36339 13.4346 -0.0652952 27.3105 2.28417 -1.27187 -12.0094 -7.54404 
50.5028 89.2685 62.4048 -0.439063 1.6456 -10.4351 5.80173 7.91239 4.61784 -4.58789 -12.2415 4.5522 0.15085 -9.3491 4.82606 -115.854 35.9269 67.1611 33.1711 -25.594 -74.4394 -0.31593 -29.1503 0.0298285 66.2053 48.6648 10.5539 -34.6073 -34.1734 83.5049 0.306887 -6.36199 -0.881456 6.94298 -41.4811 9.01597 -177.848 77.6728 177.789 5.13374 -20.0972 10.4661 3.57074 7.62911 14.587 0.178944 16.6029 2.42514 -0.290498 -5.6908 -7.67538 
50.5862 91.739 72.1085 0.126129 2.04893 -10.7743 5.62196 5.90824 7.12369 -6.5416 -12.4613 3.7539 1.02903 -7.01018 2.21504 -114.282 32.4895 69.8335 32.8185 -25.2413 -74.2784 -0.309689 -28.65 -0.0524431 65.4974 49.5728 11.9945 -34.0308 -37.2448 88.9481 0.415381 -9.45312 -0.82235 3.17402 -44.1027 4.36901 -27.7996 88.7979 27.7353 4.73172 -19.1896 8.67572 -0.390253 18.9374 14.7095 0.435331 4.09891 2.34453 2.12741 9.24961 -6.63322 
50.6257 94.603 82.1612 -0.336132 2.30499 -10.9835 6.21594 4.44362 8.36444 -7.57956 -13.2472 3.64247 2.07743 -4.56573 1.57274 -112.965 28.9877 70.8213 32.5551 -25.0517 -74.1347 -0.312071 -30.4031 -0.0626862 68.107 51.4937 9.10533 -33.6759 -39.2 92.6332 0.418779 -7.88125 -0.84207 2.83085 -41.6449 3.18965 -1.90468 70.2799 1.59601 5.17369 -18.0821 11.8886 -1.08855 22.727 11.8744 0.398817 4.31382 1.90564 5.34772 22.9357 -8.12144 
50.4919 96.9458 92.4606 -0.689705 3.14557 -11.0501 6.20633 1.81094 8.67137 -7.02773 -13.1442 3.60039 2.51839 -2.38504 1.39474 -112.334 24.9687 70.2604 32.6894 -25.3376 -74.6785 -0.316458 -30.0528 -0.0389256 72.4013 54.6195 3.46257 -33.5996 -40.2135 94.6048 0.443844 -7.60356 -0.845239 3.52867 -36.8803 3.64549 -1.60349 48.9899 0.375829 4.72899 -15.5849 13.6489 -1.4256 25.5213 9.38235 0.205945 4.14512 1.50389 7.13548 31.6782 -9.05613 
50.1152 97.6433 102.301 -2.02628 3.91279 -10.8029 6.43733 -0.113216 8.3938 -5.85945 -13.2355 3.57097 3.06643 -0.595592 1.57397 -111.831 22.5851 68.6296 33.0503 -26.1173 -75.7453 -0.285898 -30.0483 0.0435 78.8987 57.0521 -4.19127 -33.8196 -40.22 94.6707 0.411586 -9.65614 -0.848246 5.22149 -32.4385 4.00346 -1.95752 30.8858 -0.245654 2.97925 -10.7306 12.3496 -0.0305998 28.2231 9.3217 -0.28112 4.32351 1.19512 7.67351 28.577 -11.7391 
50.005 97.6952 112.084 -3.7177 3.47454 -10.6113 7.46881 -0.507472 8.1186 -6.06847 -13.4314 3.21681 4.61065 0.864237 1.26235 -110.929 21.6386 66.4488 33.5523 -27.2626 -77.2459 -0.254775 -29.2481 0.0833051 89.2018 58.3429 -15.488 -34.424 -38.8009 92.0927 0.346223 -10.7565 -0.85945 5.81947 -28.3308 2.17458 -1.82487 21.9181 -0.711858 2.59457 -9.70249 14.0961 1.93412 27.0293 10.5197 -0.749545 13.3749 0.946656 8.18353 22.67 -15.6929 
50.0041 96.3543 121.274 -4.38031 2.15509 -10.1062 7.35469 1.08833 7.49417 -6.38519 -13.259 2.96111 5.26454 -0.183451 1.09719 -109.306 23.2826 61.949 33.7529 -28.3764 -78.6466 -0.182944 -29.069 0.150219 97.0601 57.6154 -24.4518 -35.0619 -36.6996 88.3834 0.260352 -11.3291 -0.898503 5.31137 -24.6732 2.55292 -1.75797 20.1751 -0.994262 2.93456 -10.3803 13.1916 4.2238 18.8845 8.60024 -1.70819 33.5593 1.32905 7.51233 15.82 -16.118 
50.0604 93.8474 130.236 -3.5718 1.38791 -9.56897 5.6797 1.75376 6.16268 -6.16904 -12.8947 2.63484 5.72396 -1.05692 1.26549 -106.691 26.2074 55.6831 33.7863 -29.3297 -79.8208 -0.171715 -27.9502 0.163668 105.787 56.8273 -34.5081 -35.6721 -34.0285 83.9487 0.177401 -14.4407 -0.929538 3.19574 -21.4344 2.12306 -1.67948 21.5466 -1.26594 1.87195 -6.99471 7.58933 3.60353 10.3358 7.16795 -2.73342 52.0131 1.94899 5.7018 5.98906 -18.2795 
50.1027 91.3895 138.798 -1.46288 0.365325 -7.76375 2.04673 3.83182 3.69038 -5.64153 -12.1527 2.14197 6.76236 -4.45527 1.99286 -101.228 31.5813 45.651 33.7937 -30.7339 -81.6541 -0.173923 -27.4266 0.160059 107.946 53.6964 -37.8073 -35.6176 -29.7963 77.9716 0.069972 -12.4487 -0.949812 -0.996461 -21.2431 3.02119 -1.45259 31.0387 -1.40683 2.3062 -7.93139 3.69617 1.86395 0.121671 5.33066 -4.15343 69.2151 2.94357 4.28155 0.125258 -20.4642 
50.3567 89.3318 147.128 3.43418 -1.91829 -2.79427 -4.50569 7.47649 -0.0958283 -5.84649 -12.9812 -0.544962 9.36082 -6.66955 0.192233 -92.9411 38.5957 34.0318 33.8079 -31.7912 -82.7279 -0.190158 -26.9289 0.110971 112.47 48.0334 -42.4404 -33.776 -24.0073 71.0033 0.076829 -7.42063 -0.928152 -8.69527 -17.2096 -0.116493 -0.611678 37.6483 -2.17147 3.93487 -16.4775 0.774291 -4.27291 -8.89378 1.8908 -5.61949 83.287 4.37117 1.97291 -6.59573 -20.0513 
50.558 88.6442 155.044 -2.10861 -1.75966 -1.47613 2.09022 9.54752 -1.21504 -5.97247 -13.9679 -0.145491 8.11206 -7.54529 1.12174 -86.1642 46.9691 22.7587 33.9924 -33.6546 -85.104 -0.132323 -26.1705 0.0977204 113.282 39.9934 -46.6079 -31.2612 -20.2333 65.7294 0.21116 -8.29836 -0.893779 -2.33442 -14.1406 1.35914 -0.228891 43.0697 -2.18084 4.72124 -21.8981 -1.6048 4.18849 -20.4825 3.07056 -47.2314 89.5684 46.1546 0.159825 -9.69625 -22.7657 
50.6532 89.2465 163.909 -1.0104 -0.067055 0.533216 0.715404 7.10995 -3.03644 -5.75044 -11.8365 -0.0868316 9.18905 -10.0027 2.82718 -77.5467 53.4096 11.971 34.1028 -36.4837 -89.3695 -0.0944481 -24.9392 0.100526 113.966 34.7013 -48.4257 -28.9819 -17.5616 61.1192 0.399893 -10.5185 -0.804774 -4.07099 -8.42206 -0.154757 -0.0495191 40.7847 -2.58913 4.44024 -21.3017 -2.38234 3.70391 -30.5936 4.11955 9.44105 88.3153 -10.435 -1.448 -13.2402 -22.2465 
50.8671 90.7622 173.13 -1.3696 0.865204 2.38607 1.0379 5.3734 -6.23906 -3.66489 -12.0888 0.107665 7.85879 -9.09085 4.86423 -75.5958 57.5526 8.16494 33.9185 -39.0302 -93.5333 -0.0574756 -25.3923 0.093938 114.626 29.5981 -54.2701 -28.1822 -16.94 59.9602 0.452517 -10.5991 -0.742036 -3.18445 -1.64971 -1.01535 -0.137605 37.5227 -2.84308 3.52215 -15.2204 -4.23253 5.12064 -34.5263 5.32237 1.85946 78.3601 -2.93309 -0.733139 -11.149 -22.7558 
51.5328 93.6249 182.971 -1.08566 2.69942 2.34185 1.83154 2.68884 -8.22544 -2.68721 -15.296 0.42339 6.53982 -4.4425 6.6574 -81.0316 61.5296 13.5867 33.5024 -41.0302 -97.1221 -0.051179 -27.8487 0.0518481 116.158 26.6218 -60.4954 -26.0891 -14.4557 55.2857 0.537889 -12.4249 -0.722483 -2.85894 5.8467 -0.75358 -0.503295 29.4907 -2.91774 2.10675 -2.18647 -4.81647 4.52758 -36.7099 7.8514 1.2276 61.5098 -1.82927 -0.768266 -11.8651 -19.4877 
